<svg width="37" height="36" viewBox="0 0 37 36" fill="none" xmlns="http://www.w3.org/2000/svg" data-v-2ef2fe86=""><path d="M24.968 18.3021C27.1425 22.3682 31.5127 18.4789 32.5628 15.6185C33.7649 12.3373 32.9164 6.44325 28.1749 8.56823C26.7606 9.20819 27.4678 10.8417 28.9033 10.2017C31.0601 9.23294 30.7454 13.596 30.5368 14.5648C30.3282 15.5336 28.5391 19.6598 27.2662 17.2767C26.697 16.216 24.4094 17.2555 24.968 18.3021Z" fill="#302E33" data-v-2ef2fe86=""></path> <path d="M9.36844 8.1892C5.4367 7.59519 3.12079 12.1704 3.00411 15.5117C2.95461 17.0179 3.34001 18.9803 4.82149 19.7546C6.49389 20.6102 8.20519 19.5955 9.41794 18.4747C10.6307 17.3538 8.53047 16.7563 7.65007 17.5801C5.48974 19.5637 5.33063 15.1511 5.52863 14.0444C5.72663 12.9377 6.63531 9.82978 8.26529 10.0773C9.38612 10.247 10.8994 8.42963 9.37552 8.1998L9.36844 8.1892Z" fill="#302E33" data-v-2ef2fe86=""></path> <path d="M9.54499 29.8957H19.491C20.7356 29.8957 21.6726 27.9688 20.0249 27.9688H10.0754C8.83077 27.9688 7.89734 29.8957 9.54499 29.8957Z" fill="#302E33" data-v-2ef2fe86=""></path> <path d="M26.6548 6.81268L26.8351 8.67601C26.8953 9.29123 27.5812 9.43266 28.0868 9.32305L26.8387 8.67601C27.3903 14.3332 23.3807 21.1536 17.2356 21.5814C13.9297 21.8148 11.14 19.7429 10.1429 16.6314C9.04687 13.2371 10.2172 9.65187 12.0133 6.73135C12.8266 5.41606 10.4753 5.31706 9.8919 6.29999C7.7245 9.81451 6.45164 14.2165 8.06393 18.2154C9.47823 21.7193 12.9963 23.7206 16.7194 23.4872C24.201 23.017 29.9749 15.355 29.2677 8.09968C29.2076 7.488 28.5217 7.34304 28.0161 7.45265L29.2324 8.12443L29.0521 6.26463C28.9283 4.97762 26.5311 5.68123 26.6407 6.81621L26.6548 6.81268Z" fill="#302E33" data-v-2ef2fe86=""></path> <path d="M28.1288 5.57422H14.1627C12.9146 5.57422 11.9811 7.50119 13.6288 7.50119H27.5949C28.8431 7.50119 29.7765 5.57422 28.1288 5.57422Z" fill="#302E33" data-v-2ef2fe86=""></path> <path d="M14.6825 22.8456L13.1161 28.9624C12.7626 30.3272 15.1916 29.9878 15.4709 28.9023L17.0337 22.7855C17.3873 21.4207 14.9618 21.7601 14.6825 22.8456Z" fill="#302E33" data-v-2ef2fe86=""></path></svg>