<svg width="37" height="36" viewBox="0 0 37 36" fill="none" xmlns="http://www.w3.org/2000/svg" data-v-2ef2fe86=""><path d="M19.8713 9.82893L15.4792 27.1271C15.1041 28.5907 17.6771 28.2238 17.9734 27.0628L22.3656 9.76462C22.7407 8.30105 20.1639 8.66412 19.8713 9.82893Z" fill="#302E33" data-v-2ef2fe86=""></path> <path d="M33.9273 7.82112L29.5089 25.2176C29.1338 26.6774 31.7106 26.3143 32.0069 25.1533L36.4253 7.75681C36.8004 6.29324 34.2236 6.65631 33.9273 7.82112Z" fill="#302E33" data-v-2ef2fe86=""></path> <path d="M21.9819 8.88389C16.5658 7.04591 11.2059 8.24852 6.36737 11.1076C4.86706 12.0077 6.50615 13.2443 7.76267 12.5031C11.5735 10.234 15.9806 9.25827 20.2603 10.7105C21.3593 11.0887 23.3547 9.34905 21.9819 8.88389Z" fill="#302E33" data-v-2ef2fe86=""></path> <path d="M16.3213 17.544C13.4799 17.2569 10.6109 17.6241 7.93078 18.618C6.35921 19.1815 7.18063 20.9174 8.70345 20.3653C10.763 19.6127 12.9638 19.3361 15.1435 19.5559C15.7737 19.6202 16.5538 19.3933 16.8689 18.7807C17.124 18.2852 16.9702 17.6121 16.3213 17.544Z" fill="#302E33" data-v-2ef2fe86=""></path> <path d="M15.4271 21.4395C12.5856 21.1505 9.71624 21.5178 7.03656 22.5135C5.46873 23.077 6.2864 24.8129 7.80922 24.2607C9.86896 23.509 12.0694 23.2312 14.2493 23.4476C14.8795 23.5157 15.6596 23.2888 15.9747 22.6913C16.2297 22.1921 16.076 21.5227 15.4271 21.4546V21.4395Z" fill="#302E33" data-v-2ef2fe86=""></path> <path d="M31.5671 9.71994C28.7244 9.43251 25.8541 9.79977 23.1728 10.794C21.605 11.3575 22.4226 13.0934 23.9455 12.5412C26.0055 11.7908 28.2059 11.5142 30.3856 11.7319C31.0157 11.7962 31.7959 11.5693 32.1109 10.9755C32.366 10.4801 32.2122 9.80692 31.5671 9.73884V9.71994Z" fill="#302E33" data-v-2ef2fe86=""></path> <path d="M30.6733 13.6222C27.8305 13.3408 24.9614 13.7145 22.2828 14.7151C20.7112 15.2786 21.5102 17.0145 23.033 16.4623C25.0927 15.7105 27.2934 15.4339 29.4731 15.653C30.1032 15.7173 30.8834 15.4904 31.1984 14.8966C31.4535 14.3974 31.2997 13.7281 30.6546 13.66L30.6733 13.6222Z" fill="#302E33" data-v-2ef2fe86=""></path> <path d="M36.0331 6.87439C30.6169 5.0402 25.2608 6.23902 20.4223 9.0981C18.922 9.99818 20.5573 11.2348 21.8139 10.4936C25.6284 8.22449 30.0318 7.25257 34.3152 8.70479C35.4142 9.08298 37.4059 7.33956 36.0331 6.87439Z" fill="#302E33" data-v-2ef2fe86=""></path> <path d="M17.5842 26.1769C12.2169 24.3578 6.902 25.5227 2.08974 28.3326L4.03265 28.9982L7.59965 14.9599C7.97473 13.4964 5.39793 13.8594 5.10162 15.0242C3.91137 19.7011 2.72362 24.3805 1.53837 29.0625C1.22706 30.2878 2.8699 30.0836 3.48128 29.7281C7.26583 27.5157 11.6355 26.574 15.8589 28.0073C16.9579 28.3855 18.9533 26.6459 17.5767 26.1769H17.5842Z" fill="#302E33" data-v-2ef2fe86=""></path> <path d="M31.3469 24.1621C26.0958 22.3809 20.7209 23.644 16.0324 26.3821C14.5058 27.2708 16.1674 28.5113 17.424 27.7738C21.3885 25.4631 25.7807 24.6878 30.1766 26.1741C31.3431 26.5523 32.9185 24.6916 31.3544 24.1621H31.3469Z" fill="#302E33" data-v-2ef2fe86=""></path></svg>