<svg width="37" height="36" viewBox="0 0 37 36" fill="#18a784" xmlns="http://www.w3.org/2000/svg">
<path fill-rule="evenodd" clip-rule="evenodd" d="M26.8133 28.7362C28.0566 28.7362 29.4574 27.7278 29.9413 26.4845C30.4264 25.2411 29.8105 24.234 28.5672 24.234H9.56537C8.32076 24.234 6.92123 25.2411 6.43607 26.4845C5.95221 27.7278 6.56818 28.7362 7.8115 28.7362H26.8133ZM29.7254 22.2808C30.9687 22.2808 32.3696 21.2724 32.8534 20.029C33.3373 18.7857 32.7226 17.7773 31.4793 17.7773H21.8895C20.6462 17.7773 19.2453 18.7857 18.7615 20.029C18.2776 21.2724 18.8923 22.2808 20.1356 22.2808H29.7254ZM32.4915 15.7656C33.7348 15.7656 35.1356 14.7572 35.6195 13.5139C36.1033 12.2706 35.4887 11.2622 34.2453 11.2622H15.0594C13.8161 11.2622 12.4153 12.2706 11.9314 13.5139C11.4475 14.7572 12.0622 15.7656 13.3068 15.7656H32.4915Z" fill="#302E33"></path>
</svg>