<svg xmlns="http://www.w3.org/2000/svg" viewBox="0 0 350 300" width="350" height="300">
  <path d="M112.9,19c4.1-10.5-1.1-19-11.6-19H27.8C17.3,0,5.5,8.5,1.4,19C-2.7,29.5,2.5,38,13,38h73.6
           C97.1,38,108.9,29.5,112.9,19L112.9,19z M89,206.6c-14.5,0-30.9,11.8-36.5,26.3c-5.7,14.5,1.5,26.3,16.1,26.3s30.9-11.8,36.5-26.3
           C110.7,218.4,103.5,206.6,89,206.6z M311.7,52h-245c-10.5,0-22.3,8.5-26.4,19c-4.1,10.5,1.1,19,11.6,19h245
           c10.5,0,22.3-8.5,26.4-19C327.3,60.5,322.1,52,311.7,52L311.7,52z M287.8,104H84c-10.5,0-22.3,8.5-26.4,19
           c-4.1,10.5,1.1,19,11.6,19H273c10.5,0,22.3-8.5,26.4-19C303.4,112.5,298.3,104,287.8,104L287.8,104z M253.5,155.9H87.5
           c-10.5,0-22.3,8.5-26.4,19c-4.1,10.5,1.1,19,11.6,19h166.1c10.5,0,22.3-8.5,26.4-19C269.2,164.4,264,155.9,253.5,155.9
           L253.5,155.9z M211.2,232.3c-5.8,14.8-22.5,26.8-37.3,26.8c-14.8,0-22.2-12-16.4-26.8c5.8-14.8,22.5-26.8,37.3-26.8
           C209.7,205.5,217,217.5,211.2,232.3L211.2,232.3z" fill="red"/>
</svg>
