<svg width="36"  height="36" viewBox="0 0 36 36" fill="none" xmlns="http://www.w3.org/2000/svg" data-v-2ef2fe86=""><path d="M3.69085 11.3412L13.9836 13.5566C14.3159 13.6073 14.656 13.5639 14.9642 13.4314C15.2725 13.2989 15.5363 13.0828 15.7249 12.8082L21.7495 4.27591L19.3101 4.33953L20.3572 14.6868C20.3989 15.0984 20.6835 15.278 21.0515 15.3866L31.1393 18.4028L31.348 16.5317L21.6965 20.708C21.45 20.7966 21.2341 20.9522 21.0736 21.1569C20.9131 21.3615 20.8147 21.6068 20.7897 21.8643L20.9339 28.6003C20.9642 29.9513 23.5478 29.229 23.5213 28.0166L23.3771 21.2806L22.4818 22.4369L32.1333 18.2568C32.9907 17.8826 33.4612 16.7338 32.342 16.3857L22.2541 13.3807L22.9484 14.0843L21.9051 3.7258C21.7723 2.42351 19.9171 3.14576 19.4619 3.78943L13.4372 12.3329L15.1824 11.5658L4.87833 9.33914C3.67947 9.08092 2.05949 10.9782 3.68705 11.33L3.69085 11.3412Z" fill="#302E33" data-v-2ef2fe86=""></path> <path d="M23.3884 31.2131L16.3774 23.448C15.998 23.0438 15.3417 23.186 14.9016 23.3357L4.94274 26.7449L6.47924 27.8376L11.7906 18.8563C11.8908 18.7095 11.9391 18.5343 11.9281 18.3578C11.9171 18.1812 11.8475 18.0131 11.7299 17.8796L7.29112 12.0978C6.5627 11.151 4.25605 12.4982 5.12105 13.5947L9.55984 19.3765L9.49535 18.396L4.18397 27.3773C3.53902 28.4701 4.9655 28.732 5.72427 28.47L15.6793 25.0571L14.2035 24.9449L21.2145 32.71C22.0264 33.6081 24.3141 32.231 23.3884 31.2131Z" fill="#302E33" data-v-2ef2fe86=""></path></svg>