<svg width="37" height="36" viewBox="0 0 37 36" fill="none" xmlns="http://www.w3.org/2000/svg" data-v-2ef2fe86=""><path d="M16.58 28.1485L15.5753 28.708C15.7481 29.0184 16.0547 29.2314 16.4059 29.2852C16.757 29.339 17.1133 29.2275 17.3711 28.9831L16.58 28.1485ZM12.2193 11.5925C12.3472 10.9704 11.9465 10.3624 11.3244 10.2346C10.7023 10.1067 10.0943 10.5074 9.96643 11.1295L12.2193 11.5925ZM13.4036 6.25458C12.9551 6.70427 12.956 7.43241 13.4057 7.88093C13.8554 8.32945 14.5835 8.32851 15.0321 7.87882L13.4036 6.25458ZM9.96643 11.1295C9.53379 13.2347 9.54254 15.1674 10.3867 17.8433C11.2095 20.4514 12.8304 23.7795 15.5753 28.708L17.5846 27.5889C14.8425 22.6653 13.326 19.5159 12.5801 17.1514C11.8556 14.8547 11.8644 13.3198 12.2193 11.5925L9.96643 11.1295ZM17.3711 28.9831C22.3297 24.2824 25.1103 20.1507 26.3218 16.6318C27.5423 13.0867 27.1744 10.1281 25.7823 7.94956C24.408 5.79889 22.1337 4.56608 19.8369 4.25967C17.5473 3.95423 15.0991 4.55466 13.4036 6.25458L15.0321 7.87882C16.1233 6.78478 17.8051 6.309 19.5328 6.53948C21.2531 6.76898 22.8832 7.6842 23.8442 9.18803C24.7874 10.664 25.1857 12.8664 24.1471 15.8831C23.0995 18.9259 20.5959 22.7568 15.7888 27.3139L17.3711 28.9831Z" fill="#222025" data-v-2ef2fe86=""></path> <path d="M17.9956 12.5667L19.0001 15.0002" stroke="#222025" stroke-width="2.3" stroke-linecap="round" class="stroke" data-v-2ef2fe86=""></path></svg>