<svg width="36" height="36" viewBox="0 0 36 36" fill="none" xmlns="http://www.w3.org/2000/svg" data-v-2ef2fe86=""><path d="M27.1621 18.9636C27.4525 18.7577 27.7428 18.5517 28.0333 18.3449C28.3011 18.1528 27.9711 17.8767 27.7543 17.8186L20.2444 15.8064C20.7192 15.3253 20.9268 15.0618 21.1349 14.7975C21.3423 14.5343 21.5503 14.2703 22.0236 13.7896C22.8822 12.9208 23.7402 12.0511 24.5981 11.1814C25.4326 10.3354 26.2671 9.4895 27.1022 8.64446C27.2994 8.44422 27.4976 8.24353 27.6958 8.04284C27.8927 7.84343 28.0897 7.64402 28.2857 7.44506C28.5038 7.22484 28.2769 6.99093 28.0098 6.91937L17.3435 6.69486C16.8185 6.69999 16.5638 6.5768 16.338 6.8152C16.117 7.03466 16.3526 7.27088 16.6139 7.34089L26.6507 7.39675C26.3587 7.69266 26.0663 7.98878 25.7738 8.28504C25.117 8.95031 24.4594 9.61636 23.8032 10.2827C22.956 11.1399 22.3768 11.7806 21.7975 12.4213C21.2185 13.0616 20.6394 13.702 19.7929 14.5587C19.5957 14.7589 19.3975 14.9596 19.1993 15.1603C19.0024 15.3597 18.8054 15.5591 18.6094 15.7581C18.3913 15.9783 18.6182 16.2122 18.8853 16.2838L26.2884 18.2673C25.0137 19.1731 23.7423 20.077 22.4709 20.9809L22.1229 21.2284C21.1049 21.9514 20.0875 22.6752 19.0702 23.399C18.0494 24.1252 17.0287 24.8514 16.0075 25.5767C16.5593 24.7477 17.1103 23.9184 17.6613 23.0891C18.2005 22.2775 18.7397 21.4659 19.2796 20.6546C19.3947 20.4821 19.5088 20.3101 19.6229 20.1381C19.7409 19.9601 19.8589 19.7822 19.9779 19.6038C20.1071 19.4068 19.7906 19.2105 19.6275 19.1668L11.4985 16.1389C11.4985 16.1389 13.6483 13.1347 15.1472 10.9961L16.1839 9.51387C16.3677 9.2552 15.8392 9.06674 15.656 9.03812C15.5351 9.01817 15.2513 9.01028 14.9686 9.00774C14.5108 9.00363 14.0887 9.24736 13.8506 9.63837L9.83786 16.2267L9.84302 16.2203C9.7507 16.4074 10.0578 16.5918 10.2084 16.6321L18.3434 19.6617C17.0866 21.5485 15.8311 23.4377 14.5763 25.3259C14.2637 25.7963 13.951 26.2667 13.6385 26.737C13.5234 26.9095 13.4094 27.0815 13.2953 27.2534C13.1772 27.4314 13.0592 27.6094 12.9402 27.7878C12.7851 28.0221 13.2105 28.2035 13.3811 28.2433C13.6987 28.3168 14.0464 28.2896 14.3054 28.1067C15.846 27.0093 17.3862 25.9146 18.9264 24.8199L18.9275 24.8191C20.4981 23.7006 22.0697 22.5834 23.6408 21.4666C24.5394 20.8278 25.4379 20.1891 26.336 19.5503C26.6115 19.3543 26.8868 19.159 27.1621 18.9636Z" fill="#222025" stroke="#222025" stroke-width="0.7" stroke-linecap="round" stroke-linejoin="round" class="stroke" data-v-2ef2fe86=""></path></svg>