<svg width="36" height="36" viewBox="0 0 36 36" fill="none" xmlns="http://www.w3.org/2000/svg" data-v-2ef2fe86=""><path d="M18.3762 13.2029C18.4476 12.8407 18.4905 12.483 18.5041 12.136C18.5041 12.136 18.5092 11.991 18.5089 12.0742C18.5087 12.1575 18.5076 11.9852 18.508 11.968L18.5024 11.6996C18.4938 11.4857 18.4767 11.2733 18.4527 11.0681C18.3536 10.2394 18.1339 9.49417 17.8034 8.86528C17.4175 8.10768 16.8894 7.51795 16.2486 7.12892C15.9881 6.97064 15.7111 6.84483 15.4201 6.75255C15.3159 6.71986 15.205 6.69007 15.1006 6.6703L14.9103 6.63357L14.9269 6.64787L14.8156 6.6353C14.5708 6.6162 14.3192 6.62082 14.0625 6.64914C13.9354 6.66246 13.8046 6.68584 13.6754 6.71496C13.6465 6.72079 13.4713 6.76296 13.5615 6.73971C13.6517 6.71646 13.4541 6.7745 13.4183 6.78753C13.2856 6.83091 13.1523 6.88307 13.0189 6.94381C12.9574 6.96984 12.8958 7.00018 12.8342 7.03052C12.7726 7.06086 12.5516 7.18213 12.6647 7.11718C12.7779 7.05223 12.5875 7.1648 12.5583 7.18355C12.5291 7.2023 12.433 7.26432 12.3711 7.30758C12.3092 7.35084 12.225 7.40995 12.1526 7.46616C12.0803 7.52237 11.8939 7.6823 12.0217 7.5685L11.9215 7.65781C11.8472 7.72551 11.7764 7.79176 11.7054 7.86232C11.6344 7.93288 11.5824 7.98472 11.5201 8.04951C11.366 8.20216 11.6801 7.8581 11.4784 8.09702C11.3462 8.25102 11.2124 8.40791 11.085 8.57482C10.9996 8.68562 10.9225 8.79926 11.0622 8.61221C10.9989 8.71576 10.924 8.80931 10.8556 8.91288C10.7243 9.10708 10.5996 9.307 10.4764 9.51265C10.4342 9.58169 10.3089 9.80745 10.4149 9.61333C10.3323 9.74852 10.2612 9.89373 10.1886 10.0375C9.96065 10.4859 9.74954 10.9434 9.5564 11.4075C8.04868 15.1631 7.38202 19.2663 8.16044 22.3932C8.19443 22.5323 8.24013 22.6772 8.271 22.8048L8.3245 22.9784L8.38326 23.1432C8.47877 23.4013 8.58308 23.645 8.70436 23.8858C8.92675 24.3253 9.19133 24.7168 9.49427 25.0547L9.70915 25.2708C9.75393 25.3094 9.80699 25.3551 9.72739 25.2865L9.8385 25.3823C9.98001 25.492 10.1291 25.5883 10.2851 25.6709C10.5373 25.8038 10.8074 25.8986 11.0922 25.954C11.189 25.9755 11.29 25.9847 11.3943 25.9818C11.5464 25.9856 11.7022 25.9794 11.8669 25.9502C12.0317 25.9209 12.1336 25.9034 12.2749 25.8628C12.3073 25.8512 12.4162 25.8221 12.2749 25.8628C12.3073 25.8512 12.3396 25.8439 12.3738 25.8294C12.4079 25.815 12.5272 25.7773 12.6058 25.744C12.7491 25.6876 12.8928 25.6182 13.0349 25.5474L13.1325 25.4955C13.1325 25.4955 12.9815 25.5892 13.076 25.5258C13.1705 25.4623 13.227 25.432 13.3025 25.383C13.4416 25.2921 13.5828 25.1854 13.717 25.086L13.8135 25.011C13.8135 25.011 13.6375 25.1623 13.7376 25.073C13.8378 24.9837 13.9033 24.9303 13.9881 24.8497C14.1124 24.7373 14.2319 24.6207 14.3531 24.4969C14.376 24.4595 14.4121 24.4335 14.4415 24.4061C14.5835 24.2607 14.3876 24.4695 14.3859 24.468C14.4513 24.4068 14.5141 24.3388 14.5733 24.2651C14.688 24.1312 14.8029 23.993 14.9127 23.8506C14.9772 23.77 15.1394 23.5424 15.1394 23.5424L15.7683 22.5459C15.7718 22.5402 15.8457 22.4194 15.7683 22.5459C15.8 22.4942 15.7714 22.5419 15.8088 22.4798C16.4262 21.4536 17.1021 19.6506 17.1021 19.6506L17.9245 17.2352C18.1982 16.3135 18.6761 15.9682 19.1065 15.7903C19.5368 15.6124 19.7097 15.9636 19.5698 16.5238C18.6575 20.2087 17.5 25.8637 12.0831 27.863C9.9592 28.6469 7.59582 27.5684 6.71389 25.1868C5.54084 22.0095 6.04437 17.647 7.41916 13.4956C8.18851 11.1677 9.3307 8.73534 10.9226 6.9676C12.1884 5.52907 13.664 4.61038 15.0637 4.38945C18.1459 3.93337 20.4368 6.82728 20.2849 10.8342C20.2734 11.2081 20.2293 11.5943 20.1533 11.9858C20.0797 12.3038 19.9454 12.6194 19.765 12.8986C19.5845 13.1778 19.3646 13.4102 19.1289 13.5709C18.7885 13.8045 18.2545 13.8579 18.3791 13.2273L18.3762 13.2029Z" fill="black" data-v-2ef2fe86=""></path> <path fill-rule="evenodd" clip-rule="evenodd" d="M8.14843 20.2045C8.01089 19.7301 7.98415 19.0453 8.1439 18.27C8.30365 17.4946 8.60358 16.8533 8.92405 16.4399C9.24914 16.0205 9.52519 15.9111 9.70598 15.9351C9.88678 15.9592 10.1042 16.1343 10.2437 16.6155C10.3813 17.0899 10.408 17.7746 10.2483 18.55C10.0885 19.3254 9.78859 19.9666 9.46813 20.3801C9.14304 20.7995 8.86699 20.9089 8.68619 20.8848C8.5054 20.8608 8.28795 20.6857 8.14843 20.2045ZM6.84224 21.004C7.07633 21.8115 7.5646 22.4966 8.33305 22.5989C9.1015 22.7012 9.8385 22.179 10.3839 21.4753C10.934 20.7657 11.362 19.7922 11.5814 18.7274C11.8008 17.6626 11.786 16.6302 11.5499 15.8159C11.3158 15.0085 10.8276 14.3233 10.0591 14.2211C9.29068 14.1188 8.55368 14.641 8.00824 15.3447C7.45819 16.0543 7.03013 17.0278 6.81075 18.0926C6.59138 19.1574 6.60616 20.1898 6.84224 21.004Z" fill="black" data-v-2ef2fe86=""></path> <path d="M33.491 13.2035C33.5624 12.8413 33.6053 12.4836 33.6189 12.1366C33.6189 12.1366 33.6239 11.9916 33.6237 12.0749C33.6235 12.1581 33.6224 11.9859 33.6228 11.9686L33.6171 11.7002C33.6086 11.4864 33.5915 11.274 33.5675 11.0688C33.4684 10.2401 33.2487 9.49481 32.9182 8.86592C32.5322 8.10832 32.0042 7.51859 31.3634 7.12957C31.1029 6.97128 30.8259 6.84547 30.5348 6.7532C30.4307 6.72051 30.3198 6.69071 30.2154 6.67094L30.0251 6.63421L30.0417 6.64852L29.9303 6.63595C29.6856 6.61684 29.434 6.62146 29.1773 6.64979C29.0502 6.6631 28.9194 6.68648 28.7902 6.7156C28.7613 6.72143 28.5861 6.7636 28.6763 6.74035C28.7664 6.7171 28.5689 6.77514 28.5331 6.78818C28.4004 6.83155 28.2671 6.88371 28.1337 6.94445C28.0722 6.97049 28.0106 7.00082 27.949 7.03116C27.8874 7.0615 27.6664 7.18277 27.7795 7.11782C27.8927 7.05287 27.7023 7.16544 27.6731 7.18419C27.6439 7.20294 27.5478 7.26497 27.4859 7.30822C27.424 7.35148 27.3397 7.4106 27.2674 7.46681C27.1951 7.52302 27.0087 7.68294 27.1365 7.56914L27.0363 7.65845C26.962 7.72615 26.8911 7.7924 26.8202 7.86296C26.7492 7.93352 26.6972 7.98536 26.6348 8.05015C26.4808 8.2028 26.7949 7.85874 26.5931 8.09766C26.461 8.25167 26.3272 8.40855 26.1998 8.57546C26.1144 8.68626 26.0373 8.7999 26.177 8.61285C26.1137 8.71641 26.0388 8.80995 25.9704 8.91352C25.8391 9.10772 25.7144 9.30764 25.5912 9.5133C25.549 9.58233 25.4237 9.80809 25.5297 9.61397C25.447 9.74916 25.376 9.89437 25.3033 10.0381C25.0754 10.4865 24.8643 10.944 24.6712 11.4081C23.1635 15.1637 22.4968 19.267 23.2752 22.3938C23.3092 22.533 23.3549 22.6778 23.3858 22.8055L23.4393 22.979L23.498 23.1439C23.5936 23.402 23.6979 23.6457 23.8191 23.8865C24.0415 24.326 24.3061 24.7175 24.609 25.0553L24.8239 25.2714C24.8687 25.31 24.9218 25.3558 24.8422 25.2871L24.9533 25.383C25.0948 25.4926 25.2439 25.589 25.3999 25.6715C25.652 25.8044 25.9222 25.8992 26.2069 25.9547C26.3037 25.9761 26.4048 25.9854 26.5091 25.9824C26.6612 25.9863 26.817 25.98 26.9817 25.9508C27.1464 25.9216 27.2483 25.904 27.3897 25.8634C27.4221 25.8518 27.531 25.8228 27.3897 25.8634C27.4221 25.8518 27.4544 25.8445 27.4885 25.8301C27.5227 25.8156 27.642 25.7779 27.7205 25.7447C27.8639 25.6882 28.0076 25.6189 28.1496 25.5481L28.2473 25.4961C28.2473 25.4961 28.0962 25.5899 28.1907 25.5264C28.2852 25.463 28.3418 25.4326 28.4173 25.3836C28.5564 25.2927 28.6976 25.1861 28.8318 25.0866L28.9283 25.0117C28.9283 25.0117 28.7523 25.1629 28.8524 25.0736C28.9526 24.9843 29.0181 24.931 29.1028 24.8503C29.2272 24.738 29.3466 24.6213 29.4679 24.4975C29.4908 24.4601 29.5269 24.4342 29.5563 24.4068C29.6983 24.2614 29.5024 24.4701 29.5007 24.4687C29.5661 24.4075 29.6289 24.3395 29.6881 24.2657C29.8028 24.1318 29.9176 23.9937 30.0275 23.8512C30.0919 23.7706 30.2542 23.543 30.2542 23.543L30.8831 22.5466C30.8866 22.5408 30.9605 22.42 30.8831 22.5466C30.9148 22.4948 30.8862 22.5425 30.9235 22.4804C31.541 21.4542 32.2169 19.6513 32.2169 19.6513L33.0393 17.2359C33.313 16.3141 33.7909 15.9689 34.2212 15.791C34.6516 15.6131 34.8244 15.9642 34.6846 16.5245C34.0001 21.5011 32.2168 26.122 27.7208 27.853C25.4295 28.7352 22.7106 27.569 21.8287 25.1875C20.6556 22.0102 21.1591 17.6476 22.5339 13.4962C23.3033 11.1684 24.4455 8.73598 26.0374 6.96824C27.3032 5.52971 28.7788 4.61103 30.1785 4.39009C33.2607 3.93401 35.5516 6.82792 35.3996 10.8348C35.3882 11.2087 35.3441 11.5949 35.2681 11.9864C35.1945 12.3045 35.0602 12.62 34.8798 12.8992C34.6993 13.1785 34.4794 13.4109 34.2436 13.5715C33.9033 13.8052 33.3693 13.8585 33.4938 13.2279L33.491 13.2035Z" fill="black" data-v-2ef2fe86=""></path> <path fill-rule="evenodd" clip-rule="evenodd" d="M23.2629 20.2045C23.1254 19.7301 23.0987 19.0453 23.2584 18.27C23.4182 17.4946 23.7181 16.8533 24.0386 16.4399C24.3636 16.0205 24.6397 15.9111 24.8205 15.9351C25.0013 15.9592 25.2187 16.1343 25.3582 16.6155C25.4958 17.0899 25.5225 17.7746 25.3628 18.55C25.203 19.3254 24.9031 19.9666 24.5826 20.3801C24.2575 20.7995 23.9815 20.9089 23.8007 20.8848C23.6199 20.8608 23.4025 20.6857 23.2629 20.2045ZM21.9567 21.004C22.1908 21.8115 22.6791 22.4966 23.4476 22.5989C24.216 22.7012 24.953 22.179 25.4984 21.4753C26.0485 20.7657 26.4765 19.7922 26.6959 18.7274C26.9153 17.6626 26.9005 16.6302 26.6644 15.8159C26.4303 15.0085 25.9421 14.3233 25.1736 14.2211C24.4052 14.1188 23.6682 14.641 23.1227 15.3447C22.5727 16.0543 22.1446 17.0278 21.9253 18.0926C21.7059 19.1574 21.7207 20.1898 21.9567 21.004Z" fill="black" data-v-2ef2fe86=""></path></svg>