<svg width="52" max-height="70" viewBox="0 0 52 60" fill="none" xmlns="http://www.w3.org/2000/svg"><path d="M25.219 2.64111C16.6985 9.40142 10.6646 21.5338 11.5945 32.9071C12.5588 44.7213 22.2985 52.1107 33.1678 47.5701C43.3069 43.3476 50.1122 31.8948 50.987 20.724C51.9031 9.02545 44.7465 -2.41287 32.4445 0.443095C29.7926 1.0649 29.4689 4.96203 32.6236 4.22454C43.5342 1.67225 47.5017 14.8024 46.0552 23.7463C44.6776 32.119 39.5047 41.5328 31.432 44.3526C21.3273 47.8882 15.7342 37.4549 16.2784 28.258C16.7674 19.625 21.2102 10.5583 27.7951 5.33799C30.3574 3.29905 27.4232 0.941997 25.2397 2.67003L25.219 2.64111Z" fill="#302E33"></path> <path fill-rule="evenodd" clip-rule="evenodd" d="M17.7404 41.2834C18.7316 42.2446 18.756 43.8273 17.7948 44.8185L4.29472 58.7399C3.33353 59.7311 1.7508 59.7554 0.759604 58.7942C-0.231592 57.8331 -0.255912 56.2503 0.705283 55.2591L14.2053 41.3377C15.1665 40.3465 16.7492 40.3222 17.7404 41.2834Z" fill="#302E33"></path></svg>