<svg width="37" max-height="70" viewBox="0 0 37 36" fill="none" xmlns="http://www.w3.org/2000/svg"><path fill-rule="evenodd" clip-rule="evenodd" d="M7.05354 22.7617C6.5267 16.6229 9.94535 10.0744 14.7728 6.42554L14.7845 6.44116C16.0216 5.50844 17.6841 6.78067 16.2324 7.88119C12.5015 10.6988 9.98438 15.5927 9.7073 20.2523C9.399 25.2164 12.5679 30.8478 18.2929 28.9394C22.8667 27.4174 25.7976 22.3363 26.5781 17.8171C27.3976 12.9897 25.1497 5.9026 18.9681 7.28021C17.1807 7.67827 17.3641 5.57478 18.8666 5.23916C25.8366 3.69765 29.8913 9.87151 29.3723 16.1859C28.8767 22.2153 25.021 28.397 19.2764 30.6761C13.1181 33.1269 7.5999 29.1384 7.05354 22.7617ZM18.105 14.3277L18.4896 12.7893C18.6588 12.1278 19.478 11.7394 20.0588 11.7086C20.6395 11.6778 21.2087 12.1009 21.0472 12.7239L20.6626 14.2624C20.4934 14.9239 19.6741 15.3123 19.0934 15.3431C18.5126 15.3739 17.9435 14.9508 18.105 14.3277ZM16.773 18.9918L17.1576 17.4534C17.3268 16.7919 18.146 16.4034 18.7267 16.3727C19.3075 16.3419 19.8767 16.765 19.7151 17.388L19.3305 18.9264C19.1613 19.5879 18.3421 19.9764 17.7614 20.0071C17.1806 20.0379 16.6114 19.6149 16.773 18.9918ZM15.825 22.1214L15.4404 23.6598C15.2789 24.2828 15.8481 24.7059 16.4288 24.6751C17.0096 24.6444 17.8288 24.2559 17.998 23.5944L18.3826 22.056C18.5442 21.4329 17.9749 21.0099 17.3942 21.0406C16.8134 21.0714 15.9943 21.4599 15.825 22.1214Z" fill="#302E33"></path></svg>